# xmcd
#
# Track frame offsets:
#	150
#	13971
#	25388
#	35913
#	46782
#	60002
#	73343
#	85312
#	97467
#	108387
#	117206
#	129847
#	138392
#
# Disc length: 1986 seconds
#
# Revision: 0
# Processed by: cddbd v1.5.1PL0 Copyright (c) Steve Scherf et al.
# Submitted via: dBpowerAMP V4.0
#
DISCID=b707c00d
DTITLE=Patsy Cline - Best of Patsy Cline-3
DYEAR=1999
DGENRE=Country
TTITLE0=A Church, A Courtroom, and Goodbye
TTITLE1=Dear God
TTITLE2=He Will Do It for Me
TTITLE3=I Can See an Angel
TTITLE4=If I Could See the World
TTITLE5=Life's Railway to Heaven
TTITLE6=If I Could Only Stay Asleep
TTITLE7=Today, Tomorrow, and Forever
TTITLE8=Stop, Look and Listen
TTITLE9=Try Again
TTITLE10=Yes I Understand
TTITLE11=Come On In
TTITLE12=I Cried All the Way to the Alter
EXTD=
EXTT0=
EXTT1=
EXTT2=
EXTT3=
EXTT4=
EXTT5=
EXTT6=
EXTT7=
EXTT8=
EXTT9=
EXTT10=
EXTT11=
EXTT12=
PLAYORDER=
